<mxfile host="app.diagrams.net" modified="2024-04-15T10:59:23.840Z" agent="Mozilla/5.0 (Windows NT 10.0; Win64; x64; rv:124.0) Gecko/20100101 Firefox/124.0" etag="l7fnSl5SMR8cwbYiFz23" version="24.2.5" type="github">
  <diagram name="Seite-1" id="LKrx3UrgH8WO7lffrLM5">
    <mxGraphModel dx="1167" dy="1767" grid="1" gridSize="10" guides="1" tooltips="1" connect="1" arrows="1" fold="1" page="1" pageScale="1" pageWidth="827" pageHeight="1169" math="0" shadow="0">
      <root>
        <mxCell id="0" />
        <mxCell id="1" parent="0" />
        <mxCell id="6zMQh5HwKhA_6lMVVcSh-1" value="&lt;div&gt;Person &lt;br&gt;&lt;/div&gt;&lt;div&gt;&lt;br&gt;&lt;/div&gt;" style="rounded=0;whiteSpace=wrap;html=1;" vertex="1" parent="1">
          <mxGeometry x="90" y="-40" width="120" height="60" as="geometry" />
        </mxCell>
        <mxCell id="6zMQh5HwKhA_6lMVVcSh-2" value="Course" style="rounded=0;whiteSpace=wrap;html=1;" vertex="1" parent="1">
          <mxGeometry x="400" y="150" width="120" height="60" as="geometry" />
        </mxCell>
        <mxCell id="6zMQh5HwKhA_6lMVVcSh-3" value="Books" style="rounded=0;whiteSpace=wrap;html=1;" vertex="1" parent="1">
          <mxGeometry x="440" y="340" width="120" height="60" as="geometry" />
        </mxCell>
        <mxCell id="6zMQh5HwKhA_6lMVVcSh-4" value="&lt;div&gt;employee&lt;/div&gt;" style="rounded=0;whiteSpace=wrap;html=1;" vertex="1" parent="1">
          <mxGeometry y="130" width="120" height="60" as="geometry" />
        </mxCell>
        <mxCell id="6zMQh5HwKhA_6lMVVcSh-5" value="&lt;div&gt;professor&lt;/div&gt;&lt;div&gt;&lt;br&gt;&lt;/div&gt;" style="rounded=0;whiteSpace=wrap;html=1;" vertex="1" parent="1">
          <mxGeometry x="10" y="210" width="120" height="60" as="geometry" />
        </mxCell>
        <mxCell id="6zMQh5HwKhA_6lMVVcSh-6" value="&lt;div&gt;Student&lt;/div&gt;&lt;div&gt;&lt;br&gt;&lt;/div&gt;" style="rounded=0;whiteSpace=wrap;html=1;" vertex="1" parent="1">
          <mxGeometry x="190" y="150" width="120" height="60" as="geometry" />
        </mxCell>
        <mxCell id="6zMQh5HwKhA_6lMVVcSh-7" value="&lt;div&gt;chairs&lt;/div&gt;" style="rounded=0;whiteSpace=wrap;html=1;" vertex="1" parent="1">
          <mxGeometry x="240" y="390" width="120" height="60" as="geometry" />
        </mxCell>
        <mxCell id="6zMQh5HwKhA_6lMVVcSh-8" value="textbooks" style="rounded=0;whiteSpace=wrap;html=1;" vertex="1" parent="1">
          <mxGeometry x="650" y="410" width="120" height="60" as="geometry" />
        </mxCell>
        <mxCell id="6zMQh5HwKhA_6lMVVcSh-9" value="&lt;div&gt;conference proceedings&lt;/div&gt;" style="rounded=0;whiteSpace=wrap;html=1;" vertex="1" parent="1">
          <mxGeometry x="650" y="270" width="120" height="60" as="geometry" />
        </mxCell>
        <mxCell id="6zMQh5HwKhA_6lMVVcSh-10" value="&lt;div&gt;publisher&lt;/div&gt;" style="rounded=0;whiteSpace=wrap;html=1;" vertex="1" parent="1">
          <mxGeometry x="500" y="470" width="120" height="60" as="geometry" />
        </mxCell>
        <mxCell id="6zMQh5HwKhA_6lMVVcSh-11" value="" style="endArrow=none;html=1;rounded=0;exitX=0.5;exitY=0;exitDx=0;exitDy=0;exitPerimeter=0;" edge="1" parent="1" source="6zMQh5HwKhA_6lMVVcSh-4" target="6zMQh5HwKhA_6lMVVcSh-20">
          <mxGeometry width="50" height="50" relative="1" as="geometry">
            <mxPoint x="70" y="130" as="sourcePoint" />
            <mxPoint x="120" y="80" as="targetPoint" />
          </mxGeometry>
        </mxCell>
        <mxCell id="6zMQh5HwKhA_6lMVVcSh-12" value="" style="endArrow=none;html=1;rounded=0;exitX=0.5;exitY=0;exitDx=0;exitDy=0;entryX=0.5;entryY=1;entryDx=0;entryDy=0;" edge="1" parent="1" source="6zMQh5HwKhA_6lMVVcSh-5" target="6zMQh5HwKhA_6lMVVcSh-4">
          <mxGeometry width="50" height="50" relative="1" as="geometry">
            <mxPoint x="69.44" y="220" as="sourcePoint" />
            <mxPoint x="69" y="200" as="targetPoint" />
          </mxGeometry>
        </mxCell>
        <mxCell id="6zMQh5HwKhA_6lMVVcSh-13" value="" style="endArrow=none;html=1;rounded=0;entryX=0.172;entryY=0.882;entryDx=0;entryDy=0;entryPerimeter=0;exitX=0.09;exitY=0.05;exitDx=0;exitDy=0;exitPerimeter=0;" edge="1" parent="1" source="6zMQh5HwKhA_6lMVVcSh-6" target="6zMQh5HwKhA_6lMVVcSh-20">
          <mxGeometry width="50" height="50" relative="1" as="geometry">
            <mxPoint x="220" y="130" as="sourcePoint" />
            <mxPoint x="270" y="80" as="targetPoint" />
            <Array as="points" />
          </mxGeometry>
        </mxCell>
        <mxCell id="6zMQh5HwKhA_6lMVVcSh-14" value="" style="endArrow=none;html=1;rounded=0;entryX=0;entryY=0.75;entryDx=0;entryDy=0;" edge="1" parent="1" target="6zMQh5HwKhA_6lMVVcSh-7">
          <mxGeometry width="50" height="50" relative="1" as="geometry">
            <mxPoint x="130" y="250" as="sourcePoint" />
            <mxPoint x="180" y="200" as="targetPoint" />
          </mxGeometry>
        </mxCell>
        <mxCell id="6zMQh5HwKhA_6lMVVcSh-15" value="" style="endArrow=none;html=1;rounded=0;exitX=1;exitY=0.25;exitDx=0;exitDy=0;entryX=0;entryY=0.5;entryDx=0;entryDy=0;" edge="1" parent="1" source="6zMQh5HwKhA_6lMVVcSh-6" target="6zMQh5HwKhA_6lMVVcSh-2">
          <mxGeometry width="50" height="50" relative="1" as="geometry">
            <mxPoint x="320" y="190" as="sourcePoint" />
            <mxPoint x="370" y="140" as="targetPoint" />
          </mxGeometry>
        </mxCell>
        <mxCell id="6zMQh5HwKhA_6lMVVcSh-17" value="" style="endArrow=none;html=1;rounded=0;entryX=0;entryY=0.5;entryDx=0;entryDy=0;exitX=1;exitY=0.5;exitDx=0;exitDy=0;" edge="1" parent="1" source="6zMQh5HwKhA_6lMVVcSh-6" target="6zMQh5HwKhA_6lMVVcSh-3">
          <mxGeometry width="50" height="50" relative="1" as="geometry">
            <mxPoint x="280" y="140" as="sourcePoint" />
            <mxPoint x="570" y="50" as="targetPoint" />
          </mxGeometry>
        </mxCell>
        <mxCell id="6zMQh5HwKhA_6lMVVcSh-18" value="" style="endArrow=none;html=1;rounded=0;entryX=0;entryY=0.5;entryDx=0;entryDy=0;exitX=1;exitY=0.5;exitDx=0;exitDy=0;" edge="1" parent="1" source="6zMQh5HwKhA_6lMVVcSh-3" target="6zMQh5HwKhA_6lMVVcSh-9">
          <mxGeometry width="50" height="50" relative="1" as="geometry">
            <mxPoint x="570" y="380" as="sourcePoint" />
            <mxPoint x="620" y="330" as="targetPoint" />
          </mxGeometry>
        </mxCell>
        <mxCell id="6zMQh5HwKhA_6lMVVcSh-19" value="" style="endArrow=none;html=1;rounded=0;exitX=1;exitY=0.75;exitDx=0;exitDy=0;" edge="1" parent="1" source="6zMQh5HwKhA_6lMVVcSh-3" target="6zMQh5HwKhA_6lMVVcSh-8">
          <mxGeometry width="50" height="50" relative="1" as="geometry">
            <mxPoint x="600" y="420" as="sourcePoint" />
            <mxPoint x="650" y="370" as="targetPoint" />
          </mxGeometry>
        </mxCell>
        <mxCell id="6zMQh5HwKhA_6lMVVcSh-20" value="is a" style="triangle;whiteSpace=wrap;html=1;direction=north;" vertex="1" parent="1">
          <mxGeometry x="125" y="60" width="50" height="40" as="geometry" />
        </mxCell>
        <mxCell id="6zMQh5HwKhA_6lMVVcSh-21" value="" style="endArrow=none;html=1;rounded=0;" edge="1" parent="1" source="6zMQh5HwKhA_6lMVVcSh-20">
          <mxGeometry width="50" height="50" relative="1" as="geometry">
            <mxPoint x="100" y="70" as="sourcePoint" />
            <mxPoint x="150" y="20" as="targetPoint" />
          </mxGeometry>
        </mxCell>
        <mxCell id="6zMQh5HwKhA_6lMVVcSh-22" value="" style="endArrow=none;html=1;rounded=0;entryX=0;entryY=0.5;entryDx=0;entryDy=0;" edge="1" parent="1" target="6zMQh5HwKhA_6lMVVcSh-3">
          <mxGeometry width="50" height="50" relative="1" as="geometry">
            <mxPoint x="130" y="265" as="sourcePoint" />
            <mxPoint x="180" y="215" as="targetPoint" />
          </mxGeometry>
        </mxCell>
        <mxCell id="6zMQh5HwKhA_6lMVVcSh-23" value="" style="endArrow=none;html=1;rounded=0;entryX=0.405;entryY=1.106;entryDx=0;entryDy=0;entryPerimeter=0;exitX=0.331;exitY=-0.043;exitDx=0;exitDy=0;exitPerimeter=0;" edge="1" parent="1" source="6zMQh5HwKhA_6lMVVcSh-10" target="6zMQh5HwKhA_6lMVVcSh-3">
          <mxGeometry width="50" height="50" relative="1" as="geometry">
            <mxPoint x="485" y="460" as="sourcePoint" />
            <mxPoint x="535" y="410" as="targetPoint" />
          </mxGeometry>
        </mxCell>
      </root>
    </mxGraphModel>
  </diagram>
</mxfile>
